<svg xmlns="http://www.w3.org/2000/svg" xmlns:xlink="http://www.w3.org/1999/xlink" x="0" y="0" width="661.7142944335938" height="119.71429443359375" style="
        width:661.7142944335938px;
        height:119.71429443359375px;
        background: transparent;
        fill: none;
">
        
        
        <svg xmlns="http://www.w3.org/2000/svg" class="role-diagram-draw-area"><g class="shapes-region" style="stroke: black; fill: none;"><g class="arrow-line"><path class="connection real" stroke-dasharray="" d="  M178,42 L178,84.72" style="stroke: rgb(65, 117, 5); stroke-opacity: 1; stroke-width: 1; fill: none; fill-opacity: 1;"/></g><g class="arrow-line"><path class="connection real" stroke-dasharray="" d="  M80,48.72 L80,85.72" style="stroke: rgb(0, 0, 0); stroke-width: 1; fill: none; fill-opacity: 1;"/></g><g class="arrow-line"><path class="connection real" stroke-dasharray="" d="  M37,49.72 L37,72.72" style="stroke: rgb(0, 0, 0); stroke-width: 1; fill: none; fill-opacity: 1;"/></g><g/></g><g/><g/><g/></svg>
        <svg xmlns="http://www.w3.org/2000/svg" xmlns:xlink="http://www.w3.org/1999/xlink" width="660" height="118.00000762939453" style="width:660px;height:118.00000762939453px;font-family:Asana-Math, Asana;background:transparent;"><g><g><g><text x="28.857147216796875" y="18.334823608398438" style="white-space:pre;stroke:none;fill:rgb(0,0,0);fill-opacity:1;font-size:25.95px;font-family:Arial, Helvetica, sans-serif;font-weight:400;font-style:normal;dominant-baseline:text-before-edge;text-decoration:none solid rgb(0, 0, 0);">+</text></g><g><text x="44.013397216796875" y="18.334823608398438" style="white-space:pre;stroke:none;fill:rgb(6,0,255);fill-opacity:1;font-size:25.95px;font-family:Arial, Helvetica, sans-serif;font-weight:400;font-style:normal;dominant-baseline:text-before-edge;text-decoration:none solid rgb(6, 0, 255);">1.23</text></g><g><text x="94.51788330078125" y="18.334823608398438" style="white-space:pre;stroke:none;fill:rgb(0,0,0);fill-opacity:1;font-size:25.95px;font-family:Arial, Helvetica, sans-serif;font-weight:400;font-style:normal;dominant-baseline:text-before-edge;text-decoration:none solid rgb(0, 0, 0);"> </text></g><g><g><g><g><g transform="matrix(1,0,0,1,107.60714721679688,41.744823608398434)"><path transform="matrix(0.02941,0,0,-0.02941,0,0)" d="M611 37L376 271L611 505L568 547L335 313L101 547L59 505L293 271L59 37L101 -5L335 229L568 -5Z" stroke="rgb(0,0,0)" stroke-opacity="1" stroke-width="8" fill="rgb(0,0,0)" fill-opacity="1"></path></g></g><g><g transform="matrix(1,0,0,1,133.13394165039062,41.744823608398434)"><path transform="matrix(0.02941,0,0,-0.02941,0,0)" d="M667 -3L667 27L615 30C560 33 550 44 550 96L550 700L309 598L316 548L466 614L466 96C466 44 455 33 401 30L345 27L345 -3C499 0 499 0 510 0C541 0 651 -3 667 -3ZM1011 689C856 689 777 566 777 324C777 207 798 106 833 57C868 8 924 -20 986 -20C1137 -20 1213 110 1213 366C1213 585 1148 689 1011 689ZM993 654C1090 654 1129 556 1129 316C1129 103 1091 15 999 15C902 15 861 116 861 360C861 571 898 654 993 654Z" stroke="rgb(0,0,0)" stroke-opacity="1" stroke-width="8" fill="rgb(0,0,0)" fill-opacity="1"></path></g></g><g><g><g><g><g transform="matrix(1,0,0,1,171.50894165039062,30.444147216796875)"><path transform="matrix(0.020587,0,0,-0.020587,0,0)" d="M555 243L555 299L51 299L51 243ZM1064 253C1064 366 983 446 869 446C821 446 785 443 732 396L732 605L1037 604L1037 689L680 690L680 322L700 316C747 363 774 377 823 377C919 377 979 309 979 201C979 90 915 25 806 25C752 25 702 43 688 69L642 151L618 137C641 80 653 48 667 4C695 -11 735 -20 778 -20C906 -20 1064 89 1064 253Z" stroke="rgb(65,117,5)" stroke-opacity="1" stroke-width="8" fill="rgb(65,117,5)" fill-opacity="1"></path></g></g></g></g></g></g></g></g></g></g><g><g><g><text x="70.85714721679688" y="92.85716247558594" style="white-space:pre;stroke:none;fill:rgb(6,0,255);fill-opacity:1;font-size:15px;font-family:Arial, Helvetica, sans-serif;font-weight:400;font-style:normal;dominant-baseline:text-before-edge;text-decoration:none solid rgb(6, 0, 255);">仮数部</text></g></g></g><g><g><g><text x="154.85714721679688" y="90.85716247558594" style="white-space:pre;stroke:none;fill:rgb(65,117,5);fill-opacity:1;font-size:15px;font-family:Arial, Helvetica, sans-serif;font-weight:400;font-style:normal;dominant-baseline:text-before-edge;text-decoration:none solid rgb(65, 117, 5);">指数部</text></g></g></g><g><g><g><text x="13.857147216796875" y="81.85716247558594" style="white-space:pre;stroke:none;fill:rgb(0,0,0);fill-opacity:1;font-size:15px;font-family:Arial, Helvetica, sans-serif;font-weight:400;font-style:normal;dominant-baseline:text-before-edge;text-decoration:none solid rgb(0, 0, 0);">符号</text></g></g></g></svg>
</svg>
