<svg xmlns="http://www.w3.org/2000/svg" xmlns:xlink="http://www.w3.org/1999/xlink" x="0" y="0" width="662" height="124" style="
        width:662px;
        height:124px;
        background: transparent;
        fill: none;
">
        
        
        <svg xmlns="http://www.w3.org/2000/svg" class="role-diagram-draw-area"><g class="shapes-region" style="stroke: black; fill: none;"><g class="arrow-line"><path class="connection real" stroke-dasharray="" d="  M20,60 L536,60.71" style="stroke: rgb(0, 0, 0); stroke-width: 1; fill: none; fill-opacity: 1;"/><g stroke="none" fill="#000" transform="matrix(-0.9999990252244151,-0.0013962629479145109,0.0013962629479145109,-0.9999990252244151,539,60.71875)" style="stroke: none; fill: rgb(0, 0, 0); stroke-width: 1;"><path d=" M8.93,-4.29 L0,0 L8.93,4.29 Z"/></g></g><g class="arrow-line"><path class="connection real" stroke-dasharray="" d="  M60,50 L60,70" style="stroke: rgb(0, 0, 0); stroke-width: 2; fill: none; fill-opacity: 1;"/></g><g class="arrow-line"><path class="connection real" stroke-dasharray="" d="  M140,50 L140,70" style="stroke: rgb(0, 0, 0); stroke-width: 2; fill: none; fill-opacity: 1;"/></g><g class="arrow-line"><path class="connection real" stroke-dasharray="" d="  M380,50 L380,70" style="stroke: rgb(0, 0, 0); stroke-width: 2; fill: none; fill-opacity: 1;"/></g><g class="arrow-line"><path class="connection real" stroke-dasharray="" d="  M220,50 L220,70" style="stroke: rgb(0, 0, 0); stroke-width: 2; fill: none; fill-opacity: 1;"/></g><g class="arrow-line"><path class="connection real" stroke-dasharray="" d="  M240,51 L240,61" style="stroke: rgb(128, 128, 128); stroke-opacity: 1; stroke-width: 1; fill: none; fill-opacity: 1;"/></g><g class="arrow-line"><path class="connection real" stroke-dasharray="" d="  M260,51 L260,61" style="stroke: rgb(128, 128, 128); stroke-opacity: 1; stroke-width: 1; fill: none; fill-opacity: 1;"/></g><g class="arrow-line"><path class="connection real" stroke-dasharray="" d="  M360,51 L360,61" style="stroke: rgb(128, 128, 128); stroke-opacity: 1; stroke-width: 1; fill: none; fill-opacity: 1;"/></g><g class="arrow-line"><path class="connection real" stroke-dasharray="" d="  M340,51 L340,61" style="stroke: rgb(128, 128, 128); stroke-opacity: 1; stroke-width: 1; fill: none; fill-opacity: 1;"/></g><g class="arrow-line"><path class="connection real" stroke-dasharray="" d="  M279.5,60.36 L279.5,50.36" style="stroke: rgb(128, 128, 128); stroke-opacity: 1; stroke-width: 1; fill: none; fill-opacity: 1;"/></g><g class="arrow-line"><path class="connection real" stroke-dasharray="" d="  M320,60 L320,50" style="stroke: rgb(128, 128, 128); stroke-opacity: 1; stroke-width: 1; fill: none; fill-opacity: 1;"/></g><g class="arrow-line"><path class="connection real" stroke-dasharray="" d="  M100,50 L100,70" style="stroke: rgb(0, 0, 0); stroke-width: 2; fill: none; fill-opacity: 1;"/></g><g class="arrow-line"><path class="connection real" stroke-dasharray="" d="  M80,50 L80,70" style="stroke: rgb(0, 0, 0); stroke-width: 2; fill: none; fill-opacity: 1;"/></g><g class="arrow-line"><path class="connection real" stroke-dasharray="" d="  M70,50 L70,70" style="stroke: rgb(0, 0, 0); stroke-width: 2; fill: none; fill-opacity: 1;"/></g><g class="arrow-line"><path class="connection real" stroke-dasharray="" d="  M420,50 L420,60" style="stroke: rgb(128, 128, 128); stroke-opacity: 1; stroke-width: 1; fill: none; fill-opacity: 1;"/></g><g class="arrow-line"><path class="connection real" stroke-dasharray="" d="  M460,50 L460,60" style="stroke: rgb(128, 128, 128); stroke-opacity: 1; stroke-width: 1; fill: none; fill-opacity: 1;"/></g><g class="arrow-line"><path class="connection real" stroke-dasharray="" d="  M380,40 L420,40" style="stroke: rgb(6, 0, 255); stroke-width: 1; fill: none; fill-opacity: 1; stroke-opacity: 1;"/><g stroke="rgb(6,0,255)" transform="matrix(-1,1.2246467991473532e-16,-1.2246467991473532e-16,-1,420,39.99999999999999)" style="stroke: rgb(6, 0, 255); stroke-width: 1;" stroke-opacity="1"><path d=" M0,3.35 L0,-3.35 M6.56,-2.94 Q2.98,-0.6 0,0 Q2.98,0.6 6.56,2.94"/></g><g stroke="rgb(6,0,255)" transform="matrix(1,0,0,1,380,40)" style="stroke: rgb(6, 0, 255); stroke-width: 1;" stroke-opacity="1"><path d=" M0,3.35 L0,-3.35 M6.56,-1.97 Q2.98,-0.27 0,0 Q2.98,0.27 6.56,1.97"/></g></g><g class="arrow-line"><path class="connection real" stroke-dasharray="" d="  M220,40 L240,40" style="stroke: rgb(6, 0, 255); stroke-opacity: 1; stroke-width: 1; fill: none; fill-opacity: 1;"/><g stroke="rgb(6,0,255)" stroke-opacity="1" transform="matrix(-1,1.2246467991473532e-16,-1.2246467991473532e-16,-1,240,40)" style="stroke: rgb(6, 0, 255); stroke-width: 1;"><path d=" M0,3.35 L0,-3.35 M6.56,-2.94 Q2.98,-0.6 0,0 Q2.98,0.6 6.56,2.94"/></g><g stroke="rgb(6,0,255)" stroke-opacity="1" transform="matrix(1,0,0,1,220,40)" style="stroke: rgb(6, 0, 255); stroke-width: 1;"><path d=" M0,3.35 L0,-3.35 M6.56,-1.97 Q2.98,-0.27 0,0 Q2.98,0.27 6.56,1.97"/></g></g><g/></g><g/><g/><g/></svg>
        <svg xmlns="http://www.w3.org/2000/svg" xmlns:xlink="http://www.w3.org/1999/xlink" width="660" height="122" style="width:660px;height:122px;font-family:Asana-Math, Asana;background:transparent;"><g><g><g><text x="56" y="78" style="white-space:pre;stroke:none;fill:rgb(0,0,0);fill-opacity:1;font-size:15px;font-family:Arial, Helvetica, sans-serif;font-weight:400;font-style:normal;dominant-baseline:text-before-edge;text-decoration:none solid rgb(0, 0, 0);">0</text></g></g></g><g><g><g><g transform="matrix(1,0,0,1,134,91.60415649414062)"><path transform="matrix(0.017,0,0,-0.017,0,0)" d="M16 23L16 -3C203 -3 203 0 239 0C275 0 275 -3 468 -3L468 82C353 77 307 81 122 77L304 270C401 373 431 428 431 503C431 618 353 689 226 689C154 689 105 669 56 619L39 483L68 483L81 529C97 587 133 612 200 612C286 612 341 558 341 473C341 398 299 324 186 204Z" stroke="rgb(0,0,0)" stroke-opacity="1" stroke-width="8" fill="rgb(0,0,0)" fill-opacity="1"></path></g></g><g><g><g><g><g transform="matrix(1,0,0,1,143.46356201171875,84.56665649414063)"><path transform="matrix(0.0119,0,0,-0.0119,0,0)" d="M555 243L555 299L51 299L51 243ZM621 23L621 -3C808 -3 808 0 844 0C880 0 880 -3 1073 -3L1073 82C958 77 912 81 727 77L909 270C1006 373 1036 428 1036 503C1036 618 958 689 831 689C759 689 710 669 661 619L644 483L673 483L686 529C702 587 738 612 805 612C891 612 946 558 946 473C946 398 904 324 791 204Z" stroke="rgb(0,0,0)" stroke-opacity="1" stroke-width="8" fill="rgb(0,0,0)" fill-opacity="1"></path></g></g></g></g></g></g></g><g><g><g><text x="283" y="42" style="white-space:pre;stroke:none;fill:rgb(128,128,128);fill-opacity:1;font-size:15px;font-family:Arial, Helvetica, sans-serif;font-weight:400;font-style:normal;dominant-baseline:text-before-edge;text-decoration:none solid rgb(128, 128, 128);">......</text></g></g></g><g><g><g><g transform="matrix(1,0,0,1,215,91.60415649414062)"><path transform="matrix(0.017,0,0,-0.017,0,0)" d="M16 23L16 -3C203 -3 203 0 239 0C275 0 275 -3 468 -3L468 82C353 77 307 81 122 77L304 270C401 373 431 428 431 503C431 618 353 689 226 689C154 689 105 669 56 619L39 483L68 483L81 529C97 587 133 612 200 612C286 612 341 558 341 473C341 398 299 324 186 204Z" stroke="rgb(0,0,0)" stroke-opacity="1" stroke-width="8" fill="rgb(0,0,0)" fill-opacity="1"></path></g></g><g><g><g><g><g transform="matrix(1,0,0,1,224.46356201171875,84.56665649414063)"><path transform="matrix(0.0119,0,0,-0.0119,0,0)" d="M555 243L555 299L51 299L51 243ZM1023 -3L1023 27L971 30C916 33 906 44 906 96L906 700L665 598L672 548L822 614L822 96C822 44 811 33 757 30L701 27L701 -3C855 0 855 0 866 0C897 0 1007 -3 1023 -3Z" stroke="rgb(0,0,0)" stroke-opacity="1" stroke-width="8" fill="rgb(0,0,0)" fill-opacity="1"></path></g></g></g></g></g></g></g><g><g><g><g transform="matrix(1,0,0,1,94,91.60415649414062)"><path transform="matrix(0.017,0,0,-0.017,0,0)" d="M16 23L16 -3C203 -3 203 0 239 0C275 0 275 -3 468 -3L468 82C353 77 307 81 122 77L304 270C401 373 431 428 431 503C431 618 353 689 226 689C154 689 105 669 56 619L39 483L68 483L81 529C97 587 133 612 200 612C286 612 341 558 341 473C341 398 299 324 186 204Z" stroke="rgb(0,0,0)" stroke-opacity="1" stroke-width="8" fill="rgb(0,0,0)" fill-opacity="1"></path></g></g><g><g><g><g><g transform="matrix(1,0,0,1,103.46356201171875,84.56665649414063)"><path transform="matrix(0.0119,0,0,-0.0119,0,0)" d="M555 243L555 299L51 299L51 243ZM1067 224C1067 345 960 366 913 374C993 436 1023 482 1023 541C1023 630 949 689 838 689C770 689 725 670 677 622L648 498L679 498L697 554C708 588 771 622 823 622C888 622 941 569 941 506C941 431 882 368 811 368C803 368 792 369 779 370L764 371L752 318L759 312C797 329 816 334 843 334C926 334 974 281 974 190C974 88 913 21 820 21C774 21 733 36 703 64C679 86 666 109 647 163L620 153C641 92 649 56 655 6C708 -12 752 -20 789 -20C912 -20 1067 87 1067 224Z" stroke="rgb(0,0,0)" stroke-opacity="1" stroke-width="8" fill="rgb(0,0,0)" fill-opacity="1"></path></g></g></g></g></g></g></g><g><g><g><text x="62" y="45" style="white-space:pre;stroke:none;fill:rgb(128,128,128);fill-opacity:1;font-size:10.5px;font-family:Arial, Helvetica, sans-serif;font-weight:400;font-style:normal;dominant-baseline:text-before-edge;text-decoration:none solid rgb(128, 128, 128);">...</text></g></g></g><g><g><g><text x="372" y="13.333343505859375" style="white-space:pre;stroke:none;fill:rgb(6,0,255);fill-opacity:1;font-size:15px;font-family:&quot;Courier New&quot;, Courier, monospace;font-weight:400;font-style:normal;dominant-baseline:text-before-edge;text-decoration:none solid rgb(6, 0, 255);">eps(1.0)</text></g></g></g><g><g><g><g transform="matrix(1,0,0,1,374,88.60415649414062)"><path transform="matrix(0.017,0,0,-0.017,0,0)" d="M16 23L16 -3C203 -3 203 0 239 0C275 0 275 -3 468 -3L468 82C353 77 307 81 122 77L304 270C401 373 431 428 431 503C431 618 353 689 226 689C154 689 105 669 56 619L39 483L68 483L81 529C97 587 133 612 200 612C286 612 341 558 341 473C341 398 299 324 186 204Z" stroke="rgb(0,0,0)" stroke-opacity="1" stroke-width="8" fill="rgb(0,0,0)" fill-opacity="1"></path></g></g><g><g><g><g><g transform="matrix(1,0,0,1,383.46356201171875,81.9)"><path transform="matrix(0.0119,0,0,-0.0119,0,0)" d="M263 689C108 689 29 566 29 324C29 207 50 106 85 57C120 8 176 -20 238 -20C389 -20 465 110 465 366C465 585 400 689 263 689ZM245 654C342 654 381 556 381 316C381 103 343 15 251 15C154 15 113 116 113 360C113 571 150 654 245 654Z" stroke="rgb(0,0,0)" stroke-opacity="1" stroke-width="8" fill="rgb(0,0,0)" fill-opacity="1"></path></g></g></g></g></g><g><g transform="matrix(1,0,0,1,395.515625,88.60415649414062)"><path transform="matrix(0.017,0,0,-0.017,0,0)" d="M604 347L604 406L65 406L65 347ZM604 134L604 193L65 193L65 134Z" stroke="rgb(0,0,0)" stroke-opacity="1" stroke-width="8" fill="rgb(0,0,0)" fill-opacity="1"></path></g></g><g><g transform="matrix(1,0,0,1,411.9739990234375,88.60415649414062)"><path transform="matrix(0.017,0,0,-0.017,0,0)" d="M418 -3L418 27L366 30C311 33 301 44 301 96L301 700L60 598L67 548L217 614L217 96C217 44 206 33 152 30L96 27L96 -3C250 0 250 0 261 0C292 0 402 -3 418 -3Z" stroke="rgb(0,0,0)" stroke-opacity="1" stroke-width="8" fill="rgb(0,0,0)" fill-opacity="1"></path></g></g></g></g><g><g><g><text x="482" y="42" style="white-space:pre;stroke:none;fill:rgb(128,128,128);fill-opacity:1;font-size:15px;font-family:Arial, Helvetica, sans-serif;font-weight:400;font-style:normal;dominant-baseline:text-before-edge;text-decoration:none solid rgb(128, 128, 128);">......</text></g></g></g><g><g><g><text x="73" y="73" style="white-space:pre;stroke:none;fill:rgb(128,128,128);fill-opacity:1;font-size:15px;font-family:Arial, Helvetica, sans-serif;font-weight:400;font-style:normal;dominant-baseline:text-before-edge;text-decoration:none solid rgb(128, 128, 128);">...</text></g></g></g><g><g><g><text x="216" y="13.333343505859375" style="white-space:pre;stroke:none;fill:rgb(6,0,255);fill-opacity:1;font-size:15px;font-family:&quot;Courier New&quot;, Courier, monospace;font-weight:400;font-style:normal;dominant-baseline:text-before-edge;text-decoration:none solid rgb(6, 0, 255);">eps(0.5)</text></g></g></g></svg>
</svg>
