<svg xmlns="http://www.w3.org/2000/svg" xmlns:xlink="http://www.w3.org/1999/xlink" x="0" y="0" width="662" height="166" style="
        width:662px;
        height:166px;
        background: transparent;
        fill: none;
">
        
        
        <svg xmlns="http://www.w3.org/2000/svg" class="role-diagram-draw-area"><g class="shapes-region" style="stroke: black; fill: none;"><g class="arrow-line"><path class="connection real" stroke-dasharray="" d="  M10,80 L526,80.71" style="stroke: rgb(0, 0, 0); stroke-width: 1; fill: none; fill-opacity: 1;"/><g stroke="none" fill="#000" transform="matrix(-0.9999990252244151,-0.0013962629479145109,0.0013962629479145109,-0.9999990252244151,529,80.71875)" style="stroke: none; fill: rgb(0, 0, 0); stroke-width: 1;"><path d=" M8.93,-4.29 L0,0 L8.93,4.29 Z"/></g></g><g class="arrow-line"><path class="connection real" stroke-dasharray="" d="  M100,70 L100,90" style="stroke: rgb(0, 0, 0); stroke-width: 2; fill: none; fill-opacity: 1;"/></g><g class="arrow-line"><path class="connection real" stroke-dasharray="" d="  M180,70 L180,90" style="stroke: rgb(0, 0, 0); stroke-width: 2; fill: none; fill-opacity: 1;"/></g><g class="arrow-line"><path class="connection real" stroke-dasharray="" d="  M110,70 L110,80" style="stroke: rgb(6, 0, 255); stroke-width: 1; fill: none; fill-opacity: 1; stroke-opacity: 1;"/></g><g class="arrow-line"><path class="connection real" stroke-dasharray="" d="  M120,70 L120,80" style="stroke: rgb(6, 0, 255); stroke-width: 1; fill: rgb(126, 211, 33); fill-opacity: 1; stroke-opacity: 1;"/></g><g class="arrow-line"><path class="connection real" stroke-dasharray="" d="  M130,70 L130,80" style="stroke: rgb(6, 0, 255); stroke-width: 1; fill: rgb(126, 211, 33); fill-opacity: 1; stroke-opacity: 1;"/></g><g class="arrow-line"><path class="connection real" stroke-dasharray="" d="  M260,70 L260,90" style="stroke: rgb(0, 0, 0); stroke-width: 2; fill: none; fill-opacity: 1;"/></g><g class="arrow-line"><path class="connection real" stroke-dasharray="" d="  M420,70 L420,90" style="stroke: rgb(0, 0, 0); stroke-width: 2; fill: none; fill-opacity: 1;"/></g><g class="arrow-line"><path class="connection real" stroke-dasharray="" d="  M90,70 L90,80" style="stroke: rgb(6, 0, 255); stroke-opacity: 1; stroke-width: 1; fill: none; fill-opacity: 1;"/></g><g class="arrow-line"><path class="connection real" stroke-dasharray="" d="  M80,70 L80,80" style="stroke: rgb(6, 0, 255); stroke-opacity: 1; stroke-width: 1; fill: rgb(126, 211, 33); fill-opacity: 1;"/></g><g class="arrow-line"><path class="connection real" stroke-dasharray="" d="  M20,70 L20,90" style="stroke: rgb(0, 0, 0); stroke-width: 2; fill: none; fill-opacity: 1;"/></g><g/></g><g/><g/><g/></svg>
        <svg xmlns="http://www.w3.org/2000/svg" xmlns:xlink="http://www.w3.org/1999/xlink" width="660" height="164" style="width:660px;height:164px;font-family:Asana-Math, Asana;background:transparent;"><g><g><g><text x="145" y="62" style="white-space:pre;stroke:none;fill:rgb(6,0,255);fill-opacity:1;font-size:15px;font-family:Arial, Helvetica, sans-serif;font-weight:400;font-style:normal;dominant-baseline:text-before-edge;text-decoration:none solid rgb(6, 0, 255);">......</text></g></g></g><g><g><g><text x="471" y="96" style="white-space:pre;stroke:none;fill:rgb(0,0,0);fill-opacity:1;font-size:15px;font-family:Arial, Helvetica, sans-serif;font-weight:400;font-style:normal;dominant-baseline:text-before-edge;text-decoration:none solid rgb(0, 0, 0);">....</text></g></g></g><g><g><g><text x="43" y="62" style="white-space:pre;stroke:none;fill:rgb(6,0,255);fill-opacity:1;font-size:15px;font-family:Arial, Helvetica, sans-serif;font-weight:400;font-style:normal;dominant-baseline:text-before-edge;text-decoration:none solid rgb(6, 0, 255);">......</text></g></g></g><g><g><g><text x="97" y="101" style="white-space:pre;stroke:none;fill:rgb(0,0,0);fill-opacity:1;font-size:15px;font-family:Arial, Helvetica, sans-serif;font-weight:400;font-style:normal;dominant-baseline:text-before-edge;text-decoration:none solid rgb(0, 0, 0);">0</text></g></g></g><g><g><g><text x="62" y="38" style="white-space:pre;stroke:none;fill:rgb(6,0,255);fill-opacity:1;font-size:15px;font-family:Arial, Helvetica, sans-serif;font-weight:400;font-style:normal;dominant-baseline:text-before-edge;text-decoration:none solid rgb(6, 0, 255);">Subnormal</text></g></g></g><g><g><g><text x="222" y="132" style="white-space:pre;stroke:none;fill:rgb(0,0,0);fill-opacity:1;font-size:15px;font-family:Arial, Helvetica, sans-serif;font-weight:400;font-style:normal;dominant-baseline:text-before-edge;text-decoration:none solid rgb(0, 0, 0);">Normal </text></g></g></g><g><g><g><g transform="matrix(1,0,0,1,6,118.60415649414062)"><path transform="matrix(0.017,0,0,-0.017,0,0)" d="M555 243L555 299L51 299L51 243Z" stroke="rgb(0,0,0)" stroke-opacity="1" stroke-width="8" fill="rgb(0,0,0)" fill-opacity="1"></path></g></g><g><g transform="matrix(1,0,0,1,16.286468505859375,118.60415649414062)"><path transform="matrix(0.017,0,0,-0.017,0,0)" d="M16 23L16 -3C203 -3 203 0 239 0C275 0 275 -3 468 -3L468 82C353 77 307 81 122 77L304 270C401 373 431 428 431 503C431 618 353 689 226 689C154 689 105 669 56 619L39 483L68 483L81 529C97 587 133 612 200 612C286 612 341 558 341 473C341 398 299 324 186 204Z" stroke="rgb(0,0,0)" stroke-opacity="1" stroke-width="8" fill="rgb(0,0,0)" fill-opacity="1"></path></g></g><g><g><g><g><g transform="matrix(1,0,0,1,25.75,111.56665649414063)"><path transform="matrix(0.0119,0,0,-0.0119,0,0)" d="M555 243L555 299L51 299L51 243ZM1023 -3L1023 27L971 30C916 33 906 44 906 96L906 700L665 598L672 548L822 614L822 96C822 44 811 33 757 30L701 27L701 -3C855 0 855 0 866 0C897 0 1007 -3 1023 -3ZM1367 689C1212 689 1133 566 1133 324C1133 207 1154 106 1189 57C1224 8 1280 -20 1342 -20C1493 -20 1569 110 1569 366C1569 585 1504 689 1367 689ZM1349 654C1446 654 1485 556 1485 316C1485 103 1447 15 1355 15C1258 15 1217 116 1217 360C1217 571 1254 654 1349 654ZM1619 23L1619 -3C1806 -3 1806 0 1842 0C1878 0 1878 -3 2071 -3L2071 82C1956 77 1910 81 1725 77L1907 270C2004 373 2034 428 2034 503C2034 618 1956 689 1829 689C1757 689 1708 669 1659 619L1642 483L1671 483L1684 529C1700 587 1736 612 1803 612C1889 612 1944 558 1944 473C1944 398 1902 324 1789 204ZM2118 23L2118 -3C2305 -3 2305 0 2341 0C2377 0 2377 -3 2570 -3L2570 82C2455 77 2409 81 2224 77L2406 270C2503 373 2533 428 2533 503C2533 618 2455 689 2328 689C2256 689 2207 669 2158 619L2141 483L2170 483L2183 529C2199 587 2235 612 2302 612C2388 612 2443 558 2443 473C2443 398 2401 324 2288 204Z" stroke="rgb(0,0,0)" stroke-opacity="1" stroke-width="8" fill="rgb(0,0,0)" fill-opacity="1"></path></g></g></g></g></g></g></g><g><g><g><g transform="matrix(1,0,0,1,167,116.60415649414062)"><path transform="matrix(0.017,0,0,-0.017,0,0)" d="M16 23L16 -3C203 -3 203 0 239 0C275 0 275 -3 468 -3L468 82C353 77 307 81 122 77L304 270C401 373 431 428 431 503C431 618 353 689 226 689C154 689 105 669 56 619L39 483L68 483L81 529C97 587 133 612 200 612C286 612 341 558 341 473C341 398 299 324 186 204Z" stroke="rgb(0,0,0)" stroke-opacity="1" stroke-width="8" fill="rgb(0,0,0)" fill-opacity="1"></path></g></g><g><g><g><g><g transform="matrix(1,0,0,1,176.46356201171875,109.56665649414063)"><path transform="matrix(0.0119,0,0,-0.0119,0,0)" d="M555 243L555 299L51 299L51 243ZM1023 -3L1023 27L971 30C916 33 906 44 906 96L906 700L665 598L672 548L822 614L822 96C822 44 811 33 757 30L701 27L701 -3C855 0 855 0 866 0C897 0 1007 -3 1023 -3ZM1367 689C1212 689 1133 566 1133 324C1133 207 1154 106 1189 57C1224 8 1280 -20 1342 -20C1493 -20 1569 110 1569 366C1569 585 1504 689 1367 689ZM1349 654C1446 654 1485 556 1485 316C1485 103 1447 15 1355 15C1258 15 1217 116 1217 360C1217 571 1254 654 1349 654ZM1619 23L1619 -3C1806 -3 1806 0 1842 0C1878 0 1878 -3 2071 -3L2071 82C1956 77 1910 81 1725 77L1907 270C2004 373 2034 428 2034 503C2034 618 1956 689 1829 689C1757 689 1708 669 1659 619L1642 483L1671 483L1684 529C1700 587 1736 612 1803 612C1889 612 1944 558 1944 473C1944 398 1902 324 1789 204ZM2118 23L2118 -3C2305 -3 2305 0 2341 0C2377 0 2377 -3 2570 -3L2570 82C2455 77 2409 81 2224 77L2406 270C2503 373 2533 428 2533 503C2533 618 2455 689 2328 689C2256 689 2207 669 2158 619L2141 483L2170 483L2183 529C2199 587 2235 612 2302 612C2388 612 2443 558 2443 473C2443 398 2401 324 2288 204Z" stroke="rgb(0,0,0)" stroke-opacity="1" stroke-width="8" fill="rgb(0,0,0)" fill-opacity="1"></path></g></g></g></g></g></g></g><g><g><g><g transform="matrix(1,0,0,1,247,116.60415649414062)"><path transform="matrix(0.017,0,0,-0.017,0,0)" d="M16 23L16 -3C203 -3 203 0 239 0C275 0 275 -3 468 -3L468 82C353 77 307 81 122 77L304 270C401 373 431 428 431 503C431 618 353 689 226 689C154 689 105 669 56 619L39 483L68 483L81 529C97 587 133 612 200 612C286 612 341 558 341 473C341 398 299 324 186 204Z" stroke="rgb(0,0,0)" stroke-opacity="1" stroke-width="8" fill="rgb(0,0,0)" fill-opacity="1"></path></g></g><g><g><g><g><g transform="matrix(1,0,0,1,256.46356201171875,109.56665649414063)"><path transform="matrix(0.0119,0,0,-0.0119,0,0)" d="M555 243L555 299L51 299L51 243ZM1023 -3L1023 27L971 30C916 33 906 44 906 96L906 700L665 598L672 548L822 614L822 96C822 44 811 33 757 30L701 27L701 -3C855 0 855 0 866 0C897 0 1007 -3 1023 -3ZM1367 689C1212 689 1133 566 1133 324C1133 207 1154 106 1189 57C1224 8 1280 -20 1342 -20C1493 -20 1569 110 1569 366C1569 585 1504 689 1367 689ZM1349 654C1446 654 1485 556 1485 316C1485 103 1447 15 1355 15C1258 15 1217 116 1217 360C1217 571 1254 654 1349 654ZM1619 23L1619 -3C1806 -3 1806 0 1842 0C1878 0 1878 -3 2071 -3L2071 82C1956 77 1910 81 1725 77L1907 270C2004 373 2034 428 2034 503C2034 618 1956 689 1829 689C1757 689 1708 669 1659 619L1642 483L1671 483L1684 529C1700 587 1736 612 1803 612C1889 612 1944 558 1944 473C1944 398 1902 324 1789 204ZM2520 -3L2520 27L2468 30C2413 33 2403 44 2403 96L2403 700L2162 598L2169 548L2319 614L2319 96C2319 44 2308 33 2254 30L2198 27L2198 -3C2352 0 2352 0 2363 0C2394 0 2504 -3 2520 -3Z" stroke="rgb(0,0,0)" stroke-opacity="1" stroke-width="8" fill="rgb(0,0,0)" fill-opacity="1"></path></g></g></g></g></g></g></g><g><g><g><g transform="matrix(1,0,0,1,397,116.60415649414062)"><path transform="matrix(0.017,0,0,-0.017,0,0)" d="M16 23L16 -3C203 -3 203 0 239 0C275 0 275 -3 468 -3L468 82C353 77 307 81 122 77L304 270C401 373 431 428 431 503C431 618 353 689 226 689C154 689 105 669 56 619L39 483L68 483L81 529C97 587 133 612 200 612C286 612 341 558 341 473C341 398 299 324 186 204Z" stroke="rgb(0,0,0)" stroke-opacity="1" stroke-width="8" fill="rgb(0,0,0)" fill-opacity="1"></path></g></g><g><g><g><g><g transform="matrix(1,0,0,1,406.46356201171875,109.56665649414063)"><path transform="matrix(0.0119,0,0,-0.0119,0,0)" d="M555 243L555 299L51 299L51 243ZM1023 -3L1023 27L971 30C916 33 906 44 906 96L906 700L665 598L672 548L822 614L822 96C822 44 811 33 757 30L701 27L701 -3C855 0 855 0 866 0C897 0 1007 -3 1023 -3ZM1367 689C1212 689 1133 566 1133 324C1133 207 1154 106 1189 57C1224 8 1280 -20 1342 -20C1493 -20 1569 110 1569 366C1569 585 1504 689 1367 689ZM1349 654C1446 654 1485 556 1485 316C1485 103 1447 15 1355 15C1258 15 1217 116 1217 360C1217 571 1254 654 1349 654ZM1619 23L1619 -3C1806 -3 1806 0 1842 0C1878 0 1878 -3 2071 -3L2071 82C1956 77 1910 81 1725 77L1907 270C2004 373 2034 428 2034 503C2034 618 1956 689 1829 689C1757 689 1708 669 1659 619L1642 483L1671 483L1684 529C1700 587 1736 612 1803 612C1889 612 1944 558 1944 473C1944 398 1902 324 1789 204ZM2118 23L2118 -3C2305 -3 2305 0 2341 0C2377 0 2377 -3 2570 -3L2570 82C2455 77 2409 81 2224 77L2406 270C2503 373 2533 428 2533 503C2533 618 2455 689 2328 689C2256 689 2207 669 2158 619L2141 483L2170 483L2183 529C2199 587 2235 612 2302 612C2388 612 2443 558 2443 473C2443 398 2401 324 2288 204Z" stroke="rgb(0,0,0)" stroke-opacity="1" stroke-width="8" fill="rgb(0,0,0)" fill-opacity="1"></path></g></g></g></g></g></g></g></svg>
</svg>
